<svg width="275" height="48" viewBox="0 0 275 48" fill="none" xmlns="http://www.w3.org/2000/svg">
<path d="M63.5957 38H58.2344V12.3008H72.9648V16.7656H63.5957V23.3926H72.3145V27.8398H63.5957V38ZM88.5391 17.9785C89.2656 17.9785 89.8691 18.0312 90.3496 18.1367L89.9453 23.1641C89.5117 23.0469 88.9844 22.9883 88.3633 22.9883C86.6523 22.9883 85.3164 23.4277 84.3555 24.3066C83.4062 25.1855 82.9316 26.416 82.9316 27.998V38H77.5703V18.3477H81.6309L82.4219 21.6523H82.6855C83.2949 20.5508 84.1152 19.666 85.1465 18.998C86.1895 18.3184 87.3203 17.9785 88.5391 17.9785ZM98.1895 28.1387C98.1895 30.084 98.5059 31.5547 99.1387 32.5508C99.7832 33.5469 100.826 34.0449 102.268 34.0449C103.697 34.0449 104.723 33.5527 105.344 32.5684C105.977 31.5723 106.293 30.0957 106.293 28.1387C106.293 26.1934 105.977 24.7344 105.344 23.7617C104.711 22.7891 103.674 22.3027 102.232 22.3027C100.803 22.3027 99.7715 22.7891 99.1387 23.7617C98.5059 24.7227 98.1895 26.1816 98.1895 28.1387ZM111.777 28.1387C111.777 31.3379 110.934 33.8398 109.246 35.6445C107.559 37.4492 105.209 38.3516 102.197 38.3516C100.311 38.3516 98.6465 37.9414 97.2051 37.1211C95.7637 36.2891 94.6562 35.0996 93.8828 33.5527C93.1094 32.0059 92.7227 30.2012 92.7227 28.1387C92.7227 24.9277 93.5605 22.4316 95.2363 20.6504C96.9121 18.8691 99.2676 17.9785 102.303 17.9785C104.189 17.9785 105.854 18.3887 107.295 19.209C108.736 20.0293 109.844 21.207 110.617 22.7422C111.391 24.2773 111.777 26.0762 111.777 28.1387ZM134.348 38H128.986V26.5215C128.986 25.1035 128.734 24.043 128.23 23.3398C127.727 22.625 126.924 22.2676 125.822 22.2676C124.322 22.2676 123.238 22.7715 122.57 23.7793C121.902 24.7754 121.568 26.4336 121.568 28.7539V38H116.207V18.3477H120.303L121.023 20.8613H121.322C121.92 19.9121 122.74 19.1973 123.783 18.7168C124.838 18.2246 126.033 17.9785 127.369 17.9785C129.654 17.9785 131.389 18.5996 132.572 19.8418C133.756 21.0723 134.348 22.8535 134.348 25.1855V38ZM148.146 34.0801C149.084 34.0801 150.209 33.875 151.521 33.4648V37.4551C150.186 38.0527 148.545 38.3516 146.6 38.3516C144.455 38.3516 142.891 37.8125 141.906 36.7344C140.934 35.6445 140.447 34.0156 140.447 31.8477V22.373H137.881V20.1055L140.834 18.3125L142.381 14.1641H145.809V18.3477H151.311V22.373H145.809V31.8477C145.809 32.6094 146.02 33.1719 146.441 33.5352C146.875 33.8984 147.443 34.0801 148.146 34.0801ZM153.771 30.5469V26.1523H163.211V30.5469H153.771ZM182.336 38H167.535V12.3008H182.336V16.7656H172.984V22.4082H181.686V26.873H172.984V33.5H182.336V38ZM205.434 38H200.072V26.5215C200.072 25.1035 199.82 24.043 199.316 23.3398C198.812 22.625 198.01 22.2676 196.908 22.2676C195.408 22.2676 194.324 22.7715 193.656 23.7793C192.988 24.7754 192.654 26.4336 192.654 28.7539V38H187.293V18.3477H191.389L192.109 20.8613H192.408C193.006 19.9121 193.826 19.1973 194.869 18.7168C195.924 18.2246 197.119 17.9785 198.455 17.9785C200.74 17.9785 202.475 18.5996 203.658 19.8418C204.842 21.0723 205.434 22.8535 205.434 25.1855V38ZM217.176 38.3516C214.867 38.3516 213.051 37.4551 211.727 35.6621C210.414 33.8691 209.758 31.3848 209.758 28.209C209.758 24.9863 210.426 22.4785 211.762 20.6855C213.109 18.8809 214.961 17.9785 217.316 17.9785C219.789 17.9785 221.676 18.9395 222.977 20.8613H223.152C222.883 19.3965 222.748 18.0898 222.748 16.9414V10.6484H228.127V38H224.014L222.977 35.4512H222.748C221.529 37.3848 219.672 38.3516 217.176 38.3516ZM219.057 34.0801C220.428 34.0801 221.43 33.6816 222.062 32.8848C222.707 32.0879 223.059 30.7344 223.117 28.8242V28.2441C223.117 26.1348 222.789 24.623 222.133 23.709C221.488 22.7949 220.434 22.3379 218.969 22.3379C217.773 22.3379 216.842 22.8477 216.174 23.8672C215.518 24.875 215.189 26.3457 215.189 28.2793C215.189 30.2129 215.523 31.666 216.191 32.6387C216.859 33.5996 217.814 34.0801 219.057 34.0801Z" fill="#272727"/>
<path d="M42.2441 25.2829L33.9297 36.1902C33.4258 36.6657 32.8169 36.9034 32.103 36.9034C31.3892 36.9034 30.7803 36.6587 30.2764 36.1693C29.7725 35.6798 29.5205 35.0785 29.5205 34.3654C29.5205 33.6522 29.7725 33.0439 30.2764 32.5405L37.2051 23.479L30.2764 14.4176C29.7725 13.9141 29.5205 13.3128 29.5205 12.6137C29.5205 11.9145 29.7725 11.3132 30.2764 10.8098C30.7803 10.3063 31.3892 10.0546 32.103 10.0546C32.8169 10.0546 33.4258 10.3063 33.9297 10.8098L42.2441 21.6751C42.748 22.1785 43 22.7798 43 23.479C43 24.1782 42.748 24.7795 42.2441 25.2829ZM21.5 42.3151C21.472 42.399 21.43 42.5598 21.374 42.7976C21.318 43.0353 21.276 43.1961 21.248 43.28L21.1011 43.7205L20.8911 44.161L20.5762 44.4966L20.1353 44.7902L19.5684 44.9371L18.8125 45C18.1406 45 17.4967 44.6504 16.8809 43.9512C16.265 43.252 16.041 42.5808 16.209 41.9376L21.5 4.68488C21.9759 2.89496 23.3197 2 25.5312 2C26.1471 2 26.5601 2.32862 26.77 2.98585C26.98 3.64309 26.987 4.33528 26.791 5.06244L21.5 42.3151ZM12.7236 36.1693C12.2197 36.6587 11.6108 36.9034 10.897 36.9034C10.1831 36.9034 9.57422 36.6657 9.07031 36.1902L0.755859 25.2829C0.251953 24.7795 0 24.1782 0 23.479C0 22.7798 0.251953 22.1785 0.755859 21.6751L9.07031 10.8098C9.57422 10.3063 10.1831 10.0546 10.897 10.0546C11.6108 10.0546 12.2197 10.3063 12.7236 10.8098C13.2275 11.3132 13.4795 11.9145 13.4795 12.6137C13.4795 13.3128 13.2275 13.9141 12.7236 14.4176L5.79492 23.479L12.7236 32.5405C13.2275 33.0439 13.4795 33.6522 13.4795 34.3654C13.4795 35.0785 13.2275 35.6798 12.7236 36.1693Z" fill="#272727"/>
</svg>
